<svg width="320" height="94" fill="none" xmlns="http://www.w3.org/2000/svg"><rect width="320" height="94" rx="12" fill="#A0B3AF"/><path d="M55.748 35.204l-1.32 3.256-1.012 1.98-.44.528-.528.176-.352.088-.264-.22-.352-.308-.044-.264v-.66l.22-.704h-.176l-.132-.484-.176-.44.22-.924.572-1.496 1.056-2.508.88-1.54.264-.352.616-.264.22-.088.44.264.308.22-.044.616-.44 1.232h.132l.352.088.088.308.176.616-.264.88zM46.42 47.48l-4.048 9.724-1.012 2.376-.528.22-.264.572-.44.572-.264.308-.968.22-.264-.264-.484-.396.044-.352.088-.836 2.244-5.544 6.864-16.456 1.76-4.224 1.012-1.54.308-.308.704-.176.22-.088.396.308.308.176v.528l-.352 1.188.088-.088.176.308-.132.484-.528 1.408-.572 1.408-.704 1.496-.308.308-.132-.22-.088.132-.484.616-1.716 1.056-.396.44-.22.264-.044.352-.132.572.132.616.264 2.244-.176.528.264.308-.132.484-.484 1.276zm-5.544-14.036l-3.652 8.888-.704 1.716-.264.528-.704.088-.044-.22-.088-.484.132-2.332 1.1-2.904-.132-.044-.352-.132-.044-.22-.044-.484.66-3.08.836-1.936.528-.792.484-.44.352.044.352.044.044.396.044.396.044-.132.572-.308.264-.132.264.176.396.22v.264l-.044.88zm17.292 3.96l-.836 1.936-.308.484h-.66l.044-.264.088-.66.132-.308-.22-.044-.044-.22-.044-.968 1.188-3.168.968-1.98.572-.572h.748l.308.528-.044.308-1.1 3.08-.66 1.32-.132.528zM46.2 35.732l-7.744 18.744-1.848 4.444-.572.924-.396-.044h-.264l-.044-.396-.088-.528.176-.836.616-1.76.22-.44-.308.308v-.352l.132-.968 1.672-4.136 5.588-13.508 1.408-3.344.396-.836.176-.308.572.132-.044.22.396-.572.264-.264.22.132.352.176v.528l-.88 2.684zm1.672.396L40.26 54.432l-1.848 4.444-.484 1.056-.264.22-.308-.308.044-.132-.484.044.088-.396.308-1.144 1.98-4.796 6.776-16.324 1.672-3.916.616-.66.264-.088-.044.352-.176.616.044-.044.308-.132v.572l-.88 2.332zm-12.144-3.52l.44-.088.22-.044.132.484.088.352-.132.44-.44 1.232-.704.352-.22-.484-.044-.704.66-1.54zm6.204 2.904L37.4 46.424l-1.144 2.684-.748.572-.308-.352.044-.616.88-3.168 4.312-10.34.352-.748.44-.968.044-.044.044-.176.484-.528.44-.176.264.044.176.484-.132.792-.616 1.628zm1.628.132L37.488 50.34l-.968 2.244-.484 1.188-.44.748-.264-.044h-.264v-1.408l1.408-3.784L41.668 36.7l1.32-2.992.22-.22v-.044l.396-.44-.044.132.308-.308.528.352-.132.572-.704 1.892zm16.808 2.376l-.66.484-.22-.44-.176-.352.132-.308.352-.88.308-.528.308.176.308.22v.704l-.352.924zm-2.156 10.428l-.44 1.1-.616 1.012-.22.176-.704.572-.572.176-.352.088-.44-.132-.44-.088-.176-.44-.176-.44.132-.484.528-1.452 1.32-3.256.704-1.364.264-.396.484-.352.308-.22h.924l.352.308.396.572.044.88-.484 1.32-.616 1.452.088.176-.308.792zm-14.08 13.86l-.484.616-.748.132-.352-.176-.352-.484.088-.704.396-1.012-.22-.044-.132-.352-.176-.484.132-.484 1.232-3.168 3.256-7.876 1.1-2.596.704-1.496.616-.748.704-.088.352.132.352.616-.088.572-.308.88.264.132.352.22v.264l.044.66-.176.528-.66 1.672-1.188 2.772-.748 1.32-.792.528-.484-.132-.484 1.496-1.276 3.08-.44 1.012v.704l-.484 2.508zm8.932-12.496l-1.056 2.156-.176.308-.66-.132.088-.352.22-.748-.088-.22-.264-.616.088-.484.352-1.144.924-2.244.66-1.496.44-.704.396-.308.308-.264.308.088.44.132.044.396.044.528-.396 1.1-1.144 2.728-.132.264-.396 1.012zM59.048 51l-.748.396-.22-.44-.22-.308.132-.44.44-1.232.572-.88.528.22.044.352-.088 1.54-.44.792zm41.252 1.012v.044l-1.1 2.552-.352.748-.396.396-.308.088-.132.132-.748.132-.22.044-.484-.352-.264-.176-.044-.484.22-1.32 1.276-3.168 1.188-1.892.836-.44.528.044.396.044.132.22.088.176 1.716-4.136-.132-.088-.044-.264-.088-.704-.572-.792-.484-.352.044-.22.132-.44.792-2.068 2.332-5.632 1.188-2.332.396-.44.66-.352.22-.088.616.132.264.088.088.22.308.572-.044.352-.44 1.54-.88 2.112-.352.836-5.368 12.892-.968 2.332v.044zm2.992-16.06l-2.156 5.236-1.408 3.3-1.804 3.3-1.1 3.784-1.628 3.784-.704.836-.308.22-.308-.22-.308-.22.044-.22.176-.704.264-.66-.924 1.76-.616.44-.352.176-.528-.088-.396-.044-.176-.308-.264-.44.044-.352.132-.704 1.848-4.532 4.928-11.924 1.54-3.784 1.012-2.112 1.1-.88.396-.176.616.176.352.264.308.66-.132.528-.176.528.22-.44.352-.484.44-.044.352-.044.044.264.044.484-.132.704-.792 1.936zm7.524.968l-6.688 16.104-1.54 3.784-.396.748-.484-.044h-.264l-.088-.352-.132-.616.088-.572.44-1.452-.484 1.012-.704.66h-.792l-.132-.352-.176-.484.176-.792.572-1.54 1.188-2.816 5.368-12.98 1.584-3.784.66-.968.264-.396.704-.264.352.132.396.484-.044.352-.396 1.232-.044.044.352-.528.22-.308.66-.044.088.264.132.616-.088.616-.792 2.244zm-14.036-.748l1.232-1.584.396-.572h.704l-.044.22-.22.924-1.364 3.344-5.852 14.08-1.364 3.08-.484.66-.66.396-.22.132-.484-.132-.352-.088-.176-.352-.264-.44.132-.704.352-1.012-.132.044-.088-.22-.22-.704.044-.616.616-2.816 3.124-6.424 1.1-1.452.528-.66.484-.22.396-.88 2.816-4.004zm14.96 10.516l.132 2.772-1.32 3.652-2.376 5.72-1.804 2.904-.396.264-.484.044-.44.088-.704-.352-.22-.132v-.22l-.088-.748.088-.22-.264.264-.484.088-.396.132-.308-.22-.396-.308-.088-.352-.088-.792 1.408-4.092 5.984-14.476 1.452-3.476.484-.792.308-.264.528.352.044.572v2.024l-.308 2.684-.88 2.332.352-.264.132.484.132 2.332zm-23.54.968l.44-.088-.088.484-.66 1.54-.352.352-.352-.308.088-.22.924-1.76zm27.808 6.776l-.836 1.936-.396.484-.616.044h-.264v-.22l-.088-.352-.704.968-.616 2.332-.176.44-.616.748-.572.176-.352.132-.66-.132-.308-.308-.264-.66.088-.308.264-.88.836-2.068 2.156-5.192 1.232-2.772.616-.748.572-.22.352-.132.704.176.352.22.396.836-.088.88-.792 2.024.044.264-.264 2.332zm-3.916-2.244l-1.32 3.212-.924 2.156-.66 1.628-.308.66-.572.176.132-.308.176-.396-.176.044.132-.352.572-1.408 2.508-6.028.88-1.892.308-.396v.44l-.132.396v.308l-.616 1.76zm41.952-16.5l-5.852 14.08-.88 2.2-.528 1.056-.528.572-.528-.088-.264-.088-.088-.352-.088-1.1.968-3.036-.44.44-.088-.22-.176-.836v-3.344l1.98-6.38 1.672-4.004.88-2.156.528-.792.528-.352.308-.22.484-.044.44-.044.396.264.396.264.044.836-.176.44.132-.22.836-.484.44.22.308.176.044.264.044.704-.176.616-.616 1.628zm16.236-3.652l.176.792-.176.572-.572 1.408-1.452 3.476-6.072 14.696-2.288 5.544-.748 1.716-.572 1.144-.616.704-.572.22-.352.132-.484-.044-.528-.088-.264-.396-.308-.44.088-.484.22-.704-.044.088-.264.264-.704.176-.396-.132-.44-.44.044-.484.352-1.364 1.496-3.696.528-1.056.22-.44.352-.132.44-.22.308.22.396.264.044.22.176.704-.088.44-.088.352.264-.484 2.464-1.32 1.232-1.408.352-2.552.132-4.884 1.1-3.344.044-.044-.396.132-.088-.484-.088-1.76 1.188-4.664 1.056-2.112.66-.66.484-.088.396-.088.308.396.264.308-.044.484-.132.44.572-.836.528-.352.924-.176.44.132.528.352zm-21.12 1.98l-2.42 5.808-.66 1.408-.264.396-.352-.308-.352-.308-.044-.484V39.34l.22-2.156.88-2.596.792-1.804.572-.748.528-.264.352-.132.44.176.44.132.088.484.132.44-.352 1.144zm23.1 2.2l-7.92 19.052-1.848 4.444-.572 1.012-.22.22-.088-.352.044-.176-.088.176-.528.572-.264.264-.484.044-.352.044-.176-.308-.264-.44.044-.352.22-.836 2.156-5.28 7.128-17.204 1.144-2.728.66-1.496.44-.66.396-.308.308-.22.396.088.396.132.088.352.176.44-.088.352-.176.66.132-.088.088.484-.748 2.112zm-8.36-1.98l-.396-.308.088-.352.44-1.1.176-.352.352-.132.22.044v.484l-.88 1.716zm-7.392 1.716l-.22 1.76-1.936 5.148-3.828 9.196-1.056 2.508-.66 1.364h-.044v.044l-.088.044-.572.44-.484-.176-.352-.088-.132-.352-.22-.572v-.616l.396-1.804.968-2.376 5.632-13.552 1.32-3.168.132-.308.748-.396.308.44.088.704v1.76zm6.688-.66l-.264.528-.132.22.044-.352.44-1.056.264-.44-.132.528-.22.572zm9.856 5.368l-5.28 12.76-1.76 4.18-.704 1.672-.176.088-.44.968-.748.704-.484-.176-.352-.132-.044-.352-.044-.616.264-.748.66-1.76 1.232-2.904 6.16-14.872 1.496-3.564.484-.88.22-.308.22.132.352.176.044.22.044.924-.22 1.804-.792 2.244h.044l-.176.44zm-18.216 11.968l-1.584 3.784-.924 2.288-.396.704-.352.396-.264.264-.22-.132-.352-.176.044-.528.132-.396-.396.308-.396-.044-.484-.088-.22-.264-.396-.484-.132-.924.44-1.584 1.144-2.816 3.696-8.976 1.276-2.992.616-.88.088.22.264.836.044 3.476-.22 1.76-1.012 2.86.176-.044v.264l.044.616-.088.704-.528 1.848zM172.128 51l-1.54 3.784-1.012 2.376-.792 1.804-.264.528-.748.484-.264-.264-.22.396-.352.308-.484.044-.396.044-.132-.352-.22-.396.132-.572 1.276-3.388 4.708-11.352 1.188-2.816.66-.88.44.176.044.528v1.892l-1.496 4.532.22.396-.044.704-.704 2.024zm1.716 1.76l-1.98 4.444-.792.836-.264.22-.66-.132v-.88l.22-.528.572-1.408 1.672-4.004.704-1.364.352-.264.44.484-.044.572-.22 2.024zm-18.128 1.98l-.88 2.156-.66 1.364-.396.616-.352.088-.088-.044-.352.792-.264.352.132-.308.352-.88h-.044l.044-.396.484-1.452 1.672-4.136.572-.968.308-.088.176.44-.088.792-.616 1.672zm55.152 7.216v-.88h-.176l-.44.088-.22-.308-.264-.396.044-.352.22-.924 2.2-5.412 6.908-16.588 1.76-4.224.924-1.452.308-.352.704-.176.264-.044.308.308.264.264v.352l-.264 1.056h.352l.22-.044.132.264.22.572-.088.44-.396 1.1-6.424 15.488-1.584 3.784-.264.528-.396.352-.308.264-.308-.176-.44-.22-.044-.22-.132-.792.792-2.376-.308.22-.264.22-.176.484-.22 2.244-1.716 5.06-.176.176.044.264.044.396-.176.484-.132.352-.22.088-.572.088zm12.848-10.252l-2.068 5.104-1.452 3.432-.484.792-.528.264-.308.176-.44-.264-.352-.176-.176-.44-.264-1.408.616-1.804-.616.044h-.352l-.264-.396-.264-.352-.132-1.144 1.628-4.884 5.148-12.364 1.628-3.916.968-2.156.66-.748.44-.176.44-.176.484.132.484.176.132.484.132.484-.132.44-.088.264.044-.044.66.132v.264l.044.66-.572 1.144-1.232 2.112-1.628 2.728-.264.396h-.044l-.484 1.1-1.76 3.608-.88 2.728-.22.66.176-.132.22-.088.352.22.396.264.44.88-.088 1.98zM212.672 36.26l-2.64 7.04-4.664 11.264-1.188 2.816-.616 1.496-.44.748-.352.088-.352.088-.132-.352-.132-1.188 1.232-4.532-.132-.132-.308-.264v-.22l-.044-.704.572-4.4 1.76-4.356 3.168-7.568 1.364-3.256.616-.968.264-.396.704-.264.22-.088.484.264.308.22.044.22.132.66-.132.44-.308.748.22.044.352.088.088.484-.088 1.98zm-3.608-2.772l-1.76 4.356-2.728 6.6-1.1 2.596-.792.572-.308-.748-.044-3.168 1.276-4.708-.66.528.088-.352.352-1.276 1.364-3.256.44-.968.176-.308.572-.044.044-.088.792-1.144.836-.484h.924l.352.352.264.264.044.352-.132.924zm5.544 5.192l1.936-3.476.572-.748.748-1.584.616-.704.44-.176.44-.176.44.22.308.132.044.396.088.484-.176.66-3.256 7.964-5.896 14.168-1.144 2.816-1.144 2.2-.264.396-.528.308-.352.176-.44-.132-.352-.132-.132-.308-.132-.484.044-.352.264-.88.088-.22-.748 1.584-.748.484-.308.176-.484-.088-.484-.088-.22-.352-.264-.44.044-.484.396-1.452 2.992-7.26 4.18-10.076.704-1.716.396-.88.528-.572.264.264.396.748.088.352.396-.088.308-.176.352-.484zm-10.296-3.784l-1.232 2.816-.308.44-.352.044h-.22l-.044-.22-.132-.968.616-3.52.528-.836.396-.22.44-.264.44.22.352.132v.484l.044.44-.528 1.452zm22.044 23.452l-.968 2.244-.44.704-.22.264-.572.22-.44-.088-.396-.44.044-.44-.616.484-.572.088-.352.044-.264-.264-.484-.352v-.264l-.044-.704.176-.572.66-1.76 1.628-3.96.836-1.804.308-.528.704-.264.22-.132.352.352.352.308.308.88-.22 1.628-.44 1.144.396-.132.352.132.352.616-.044.616-.616 1.98zm1.584 2.86v-.528l-.264.22-.396.352-.396-.044-.528-.088-.22-.88.22-.968.924-2.024.308-.528.528-.264.44.044.44.396.044.484-.264 1.628-.308.66h.264l.396.044-.044.396v.616l-.352.484-.22.264-.572-.264zm2.376-.924l.308.176-.352.396-.264-.22.308-.352zm43.372-24.64l-7.656 18.348-1.804 4.356-.528.924-.22.264-.132-.308-.132-.352.044-.22-.264.132-.352.132-.352-.308-.352-.308v-1.188l1.936-5.016 6.16-14.784 1.628-3.916.88-1.496.308-.352.704-.264.44.088.44.484-.044.616-.22.704.088-.044.22.44-.22.528-.572 1.54zm-3.168-1.056l-6.468 15.708-2.596 6.16-.528 1.012-.264.308-.484.044.088-.352.176-.66-.044.088-.484.088-.352.088-.264-.264-.396-.308-.044-.352-.088-.88 1.672-4.664 4.752-11.44 1.54-3.784 1.1-2.332.924-1.012.396-.308.484-.044.484-.044.22.264.264.396-.044.396-.176.792.352-.088-.044.264-.176.924zm2.816 10.516l-.88 1.892-.396.572-.616.396-.044-.264-.088-.572.924-2.552 1.012-1.98.264-.176.044-.044 2.156-5.28-.176-.176.088-.22.132-.484.792-1.936.528-.748.22-.132.264-.528.44-.44-.044.484-.22.616v.264l.044.352-.176.44-.616 1.276-.616.88-1.056 2.376-1.1 2.86-.22.572.176.132-.176.616-.66 1.804zm-7.128 12.452l-1.364 2.992-.176.308-.484.132-.22-.044.044-.352.352-1.232.308-.704.22-.792 1.936-4.664 6.644-15.972 1.584-3.784.528-.836.308-.088.132.528-.22.572.044.396-.176.66-.616 1.54-3.916 9.416-1.012 2.024-.352.264-.924 1.936-1.32 3.828-.528 1.232.088.22-.088.352-.264.748-.528 1.32zm-.088-22.528l.528-.352-.088.352-.308.924-1.628 4.004-4.356 10.472-.88 2.156-.66 1.364-.44.572-.352.088-.352.044-.132-.352-.22-.484.088-.528.616-1.804-.748-.088-.044-.484.484-2.376 2.728-5.94 1.452-1.892.484-.264.22-.088.572-1.32 1.76-2.508 1.276-1.496zm12.892 9.636l-5.896 14.168-1.056 2.332-.528.66-.704.396-.484-.22-.352-.176-.044-.396.044-.968.044-.132-.264.088-.396-.088-.44-.396-.044-.528.572-2.156 1.32-2.992.66-.836.22-.22.704-.22.396.132.308.308.66-1.144.748-2.684.792-1.98-.264-.176-.44-.264-.132-.484.66-3.036 1.452-3.08.748-.616.528-.044.572.352.088.572-.352 1.1.396.044.396.044.22.352.264.396-.044.484-.352 1.408zm2.068 3.74l-4.488 10.78-.704 1.496-.572.616-.704.22-.484-.44.044-.22.044-.352-.66.352-.484-.44.044-.264.132-.616.308-.88.836-1.936 4.268-10.296 1.32-2.86.352-.484h.748l.044.264.044.484-.176.792v.044l.44-.132.352.132.308.528-.044.352-.968 2.86zm2.596 2.64l-2.904 7.04-.528 1.012-.264.44-.352.088-.484.044.044-.572v-.044l-.528.88-.396.396-.264-.044-.572-.088v-.22l.044-.484.792-2.2 3.564-8.58.88-1.936.396-.572.616-.352.264.44.264.308-.088.484-.44 1.408.572-.088.044.616-.66 2.024zm-1.672-2.948l-3.124 7.568-1.188 2.816-.22.528-.132.22h-.22l.088-.22.176-.528.924-2.288 3.344-8.096.528-1.276.264-.528.44-.396-.176.44-.704 1.76zm-24.596-.44l.264-.66.528-.66-.088.352-.528 1.32-.352.396.176-.748zm23.892 1.012l-3.124 7.568-1.056 2.508-.572 1.056.22-.572.88-2.156 2.728-6.6.88-2.156.528-1.056-.088.352-.396 1.056zm2.904 6.424l-1.1 2.068-.22.308-.66-.264.088-.22.088-.352-.22.572-.352.748-.528.66-.264-.352.088-.44.484-1.452 1.892-4.532.836-1.716.308-.44.088.22.22.352-.132.44-1.144 2.904v-.044l.396-.22.088-.22.616-1.144-.132.308-.352.836h.088l.264.176-.044.22-.088.704-.308.88zm-16.104 2.64l-.924 2.156-.616 1.1-.704.352-.22-.484.132-.484.352-.968 1.32-3.124.352-.616.308-.132.088-.264.616-1.056.044.352-.264.924v.308l.044.484-.528 1.452z" fill="#FFF8E1"/></svg>