<svg width="320" height="94" viewBox="0 0 320 94" fill="none" xmlns="http://www.w3.org/2000/svg">
<rect width="320" height="94" rx="12" fill="#A0B3AF"/>
<path d="M55.748 35.204L54.428 38.46L53.416 40.44L52.976 40.968L52.448 41.144L52.096 41.232L51.832 41.012L51.48 40.704L51.436 40.44V39.78L51.656 39.076H51.48L51.348 38.592L51.172 38.152L51.392 37.228L51.964 35.732L53.02 33.224L53.9 31.684L54.164 31.332L54.78 31.068L55 30.98L55.44 31.244L55.748 31.464L55.704 32.08L55.264 33.312H55.396L55.748 33.4L55.836 33.708L56.012 34.324L55.748 35.204ZM46.42 47.48L42.372 57.204L41.36 59.58L40.832 59.8L40.568 60.372L40.128 60.944L39.864 61.252L38.896 61.472L38.632 61.208L38.148 60.812L38.192 60.46L38.28 59.624L40.524 54.08L47.388 37.624L49.148 33.4L50.16 31.86L50.468 31.552L51.172 31.376L51.392 31.288L51.788 31.596L52.096 31.772V32.3L51.744 33.488L51.832 33.4L52.008 33.708L51.876 34.192L51.348 35.6L50.776 37.008L50.072 38.504L49.764 38.812L49.632 38.592L49.544 38.724L49.06 39.34L47.344 40.396L46.948 40.836L46.728 41.1L46.684 41.452L46.552 42.024L46.684 42.64L46.948 44.884L46.772 45.412L47.036 45.72L46.904 46.204L46.42 47.48ZM40.876 33.444L37.224 42.332L36.52 44.048L36.256 44.576L35.552 44.664L35.508 44.444L35.42 43.96L35.552 41.628L36.652 38.724L36.52 38.68L36.168 38.548L36.124 38.328L36.08 37.844L36.74 34.764L37.576 32.828L38.104 32.036L38.588 31.596L38.94 31.64L39.292 31.684L39.336 32.08L39.38 32.476L39.424 32.344L39.996 32.036L40.26 31.904L40.524 32.08L40.92 32.3V32.564L40.876 33.444ZM58.168 37.404L57.332 39.34L57.024 39.824H56.364L56.408 39.56L56.496 38.9L56.628 38.592L56.408 38.548L56.364 38.328L56.32 37.36L57.508 34.192L58.476 32.212L59.048 31.64H59.796L60.104 32.168L60.06 32.476L58.96 35.556L58.3 36.876L58.168 37.404ZM46.2 35.732L38.456 54.476L36.608 58.92L36.036 59.844L35.64 59.8H35.376L35.332 59.404L35.244 58.876L35.42 58.04L36.036 56.28L36.256 55.84L35.948 56.148V55.796L36.08 54.828L37.752 50.692L43.34 37.184L44.748 33.84L45.144 33.004L45.32 32.696L45.892 32.828L45.848 33.048L46.244 32.476L46.508 32.212L46.728 32.344L47.08 32.52V33.048L46.2 35.732ZM47.872 36.128L40.26 54.432L38.412 58.876L37.928 59.932L37.664 60.152L37.356 59.844L37.4 59.712L36.916 59.756L37.004 59.36L37.312 58.216L39.292 53.42L46.068 37.096L47.74 33.18L48.356 32.52L48.62 32.432L48.576 32.784L48.4 33.4L48.444 33.356L48.752 33.224V33.796L47.872 36.128ZM35.728 32.608L36.168 32.52L36.388 32.476L36.52 32.96L36.608 33.312L36.476 33.752L36.036 34.984L35.332 35.336L35.112 34.852L35.068 34.148L35.728 32.608ZM41.932 35.512L37.4 46.424L36.256 49.108L35.508 49.68L35.2 49.328L35.244 48.712L36.124 45.544L40.436 35.204L40.788 34.456L41.228 33.488L41.272 33.444L41.316 33.268L41.8 32.74L42.24 32.564L42.504 32.608L42.68 33.092L42.548 33.884L41.932 35.512ZM43.56 35.644L37.488 50.34L36.52 52.584L36.036 53.772L35.596 54.52L35.332 54.476H35.068V54.124V53.068L36.476 49.284L41.668 36.7L42.988 33.708L43.208 33.488V33.444L43.604 33.004L43.56 33.136L43.868 32.828L44.396 33.18L44.264 33.752L43.56 35.644ZM60.368 38.02L59.708 38.504L59.488 38.064L59.312 37.712L59.444 37.404L59.796 36.524L60.104 35.996L60.412 36.172L60.72 36.392V36.612V37.096L60.368 38.02ZM58.212 48.448L57.772 49.548L57.156 50.56L56.936 50.736L56.232 51.308L55.66 51.484L55.308 51.572L54.868 51.44L54.428 51.352L54.252 50.912L54.076 50.472L54.208 49.988L54.736 48.536L56.056 45.28L56.76 43.916L57.024 43.52L57.508 43.168L57.816 42.948H58.388H58.74L59.092 43.256L59.488 43.828L59.532 44.708L59.048 46.028L58.432 47.48L58.52 47.656L58.212 48.448ZM44.132 62.308L43.648 62.924L42.9 63.056L42.548 62.88L42.196 62.396L42.284 61.692L42.68 60.68L42.46 60.636L42.328 60.284L42.152 59.8L42.284 59.316L43.516 56.148L46.772 48.272L47.872 45.676L48.576 44.18L49.192 43.432L49.896 43.344L50.248 43.476L50.6 44.092L50.512 44.664L50.204 45.544L50.468 45.676L50.82 45.896V46.16L50.864 46.82L50.688 47.348L50.028 49.02L48.84 51.792L48.092 53.112L47.3 53.64L46.816 53.508L46.332 55.004L45.056 58.084L44.616 59.096V59.8L44.132 62.308ZM53.064 49.812L52.008 51.968L51.832 52.276L51.172 52.144L51.26 51.792L51.48 51.044L51.392 50.824L51.128 50.208L51.216 49.724L51.568 48.58L52.492 46.336L53.152 44.84L53.592 44.136L53.988 43.828L54.296 43.564L54.604 43.652L55.044 43.784L55.088 44.18L55.132 44.708L54.736 45.808L53.592 48.536L53.46 48.8L53.064 49.812ZM59.048 51L58.3 51.396L58.08 50.956L57.86 50.648L57.992 50.208L58.432 48.976L59.004 48.096L59.532 48.316L59.576 48.668L59.488 50.208L59.048 51Z" fill="#FFF8E1"/>
<path d="M100.3 52.012V52.056L99.2 54.608L98.848 55.356L98.452 55.752L98.144 55.84L98.012 55.972L97.264 56.104L97.044 56.148L96.56 55.796L96.296 55.62L96.252 55.136L96.472 53.816L97.748 50.648L98.936 48.756L99.772 48.316L100.3 48.36L100.696 48.404L100.828 48.624L100.916 48.8L102.632 44.664L102.5 44.576L102.456 44.312L102.368 43.608L101.796 42.816L101.312 42.464L101.356 42.244L101.488 41.804L102.28 39.736L104.612 34.104L105.8 31.772L106.196 31.332L106.856 30.98L107.076 30.892L107.692 31.024L107.956 31.112L108.044 31.332L108.352 31.904L108.308 32.256L107.868 33.796L106.988 35.908L106.636 36.744L101.268 49.636L100.3 51.968V52.012ZM103.292 35.952L101.136 41.188L99.728 44.488L97.924 47.788L96.824 51.572L95.196 55.356L94.492 56.192L94.184 56.412L93.876 56.192L93.568 55.972L93.612 55.752L93.788 55.048L94.052 54.388L93.128 56.148L92.512 56.588L92.16 56.764L91.632 56.676L91.236 56.632L91.06 56.324L90.796 55.884L90.84 55.532L90.972 54.828L92.82 50.296L97.748 38.372L99.288 34.588L100.3 32.476L101.4 31.596L101.796 31.42L102.412 31.596L102.764 31.86L103.072 32.52L102.94 33.048L102.764 33.576L102.984 33.136L103.336 32.652L103.776 32.608L104.128 32.564L104.172 32.828L104.216 33.312L104.084 34.016L103.292 35.952ZM110.816 36.92L104.128 53.024L102.588 56.808L102.192 57.556L101.708 57.512H101.444L101.356 57.16L101.224 56.544L101.312 55.972L101.752 54.52L101.268 55.532L100.564 56.192H100.124H99.772L99.64 55.84L99.464 55.356L99.64 54.564L100.212 53.024L101.4 50.208L106.768 37.228L108.352 33.444L109.012 32.476L109.276 32.08L109.98 31.816L110.332 31.948L110.728 32.432L110.684 32.784L110.288 34.016L110.244 34.06L110.596 33.532L110.816 33.224L111.476 33.18L111.564 33.444L111.696 34.06L111.608 34.676L110.816 36.92ZM96.78 36.172L98.012 34.588L98.408 34.016H99.112L99.068 34.236L98.848 35.16L97.484 38.504L91.632 52.584L90.268 55.664L89.784 56.324L89.124 56.72L88.904 56.852L88.42 56.72L88.068 56.632L87.892 56.28L87.628 55.84L87.76 55.136L88.112 54.124L87.98 54.168L87.892 53.948L87.672 53.244L87.716 52.628L88.332 49.812L91.456 43.388L92.556 41.936L93.084 41.276L93.568 41.056L93.964 40.176L96.78 36.172ZM111.74 46.688L111.872 49.46L110.552 53.112L108.176 58.832L106.372 61.736L105.976 62L105.492 62.044L105.052 62.132L104.348 61.78L104.128 61.648V61.428L104.04 60.68L104.128 60.46L103.864 60.724L103.38 60.812L102.984 60.944L102.676 60.724L102.28 60.416L102.192 60.064L102.104 59.272L103.512 55.18L109.496 40.704L110.948 37.228L111.432 36.436L111.74 36.172L112.268 36.524L112.312 37.096V39.12L112.004 41.804L111.124 44.136L111.476 43.872L111.608 44.356L111.74 46.688ZM88.2 47.656L88.64 47.568L88.552 48.052L87.892 49.592L87.54 49.944L87.188 49.636L87.276 49.416L88.2 47.656ZM116.008 54.432L115.172 56.368L114.776 56.852L114.16 56.896H113.896V56.676L113.808 56.324L113.104 57.292L112.488 59.624L112.312 60.064L111.696 60.812L111.124 60.988L110.772 61.12L110.112 60.988L109.804 60.68L109.54 60.02L109.628 59.712L109.892 58.832L110.728 56.764L112.884 51.572L114.116 48.8L114.732 48.052L115.304 47.832L115.656 47.7L116.36 47.876L116.712 48.096L117.108 48.932L117.02 49.812L116.228 51.836L116.272 52.1L116.008 54.432ZM112.092 52.188L110.772 55.4L109.848 57.556L109.188 59.184L108.88 59.844L108.308 60.02L108.44 59.712L108.616 59.316L108.44 59.36L108.572 59.008L109.144 57.6L111.652 51.572L112.532 49.68L112.84 49.284V49.724L112.708 50.12V50.428L112.092 52.188Z" fill="#FFF8E1"/>
<path d="M154.044 35.688L148.192 49.768L147.312 51.968L146.784 53.024L146.256 53.596L145.728 53.508L145.464 53.42L145.376 53.068L145.288 51.968L146.256 48.932L145.816 49.372L145.728 49.152L145.552 48.316V44.972L147.532 38.592L149.204 34.588L150.084 32.432L150.612 31.64L151.14 31.288L151.448 31.068L151.932 31.024L152.372 30.98L152.768 31.244L153.164 31.508L153.208 32.344L153.032 32.784L153.164 32.564L154 32.08L154.44 32.3L154.748 32.476L154.792 32.74L154.836 33.444L154.66 34.06L154.044 35.688ZM170.28 32.036L170.456 32.828L170.28 33.4L169.708 34.808L168.256 38.284L162.184 52.98L159.896 58.524L159.148 60.24L158.576 61.384L157.96 62.088L157.388 62.308L157.036 62.44L156.552 62.396L156.024 62.308L155.76 61.912L155.452 61.472L155.54 60.988L155.76 60.284L155.716 60.372L155.452 60.636L154.748 60.812L154.352 60.68L153.912 60.24L153.956 59.756L154.308 58.392L155.804 54.696L156.332 53.64L156.552 53.2L156.904 53.068L157.344 52.848L157.652 53.068L158.048 53.332L158.092 53.552L158.268 54.256L158.18 54.696L158.092 55.048L158.356 54.564L160.82 53.244L162.052 51.836L162.404 49.284L162.536 44.4L163.636 41.056L163.68 41.012L163.284 41.144L163.196 40.66L163.108 38.9L164.296 34.236L165.352 32.124L166.012 31.464L166.496 31.376L166.892 31.288L167.2 31.684L167.464 31.992L167.42 32.476L167.288 32.916L167.86 32.08L168.388 31.728L169.312 31.552L169.752 31.684L170.28 32.036ZM149.16 34.016L146.74 39.824L146.08 41.232L145.816 41.628L145.464 41.32L145.112 41.012L145.068 40.528V39.34L145.288 37.184L146.168 34.588L146.96 32.784L147.532 32.036L148.06 31.772L148.412 31.64L148.852 31.816L149.292 31.948L149.38 32.432L149.512 32.872L149.16 34.016ZM172.26 36.216L164.34 55.268L162.492 59.712L161.92 60.724L161.7 60.944L161.612 60.592L161.656 60.416L161.568 60.592L161.04 61.164L160.776 61.428L160.292 61.472L159.94 61.516L159.764 61.208L159.5 60.768L159.544 60.416L159.764 59.58L161.92 54.3L169.048 37.096L170.192 34.368L170.852 32.872L171.292 32.212L171.688 31.904L171.996 31.684L172.392 31.772L172.788 31.904L172.876 32.256L173.052 32.696L172.964 33.048L172.788 33.708L172.92 33.62L173.008 34.104L172.26 36.216ZM163.9 34.236L163.504 33.928L163.592 33.576L164.032 32.476L164.208 32.124L164.56 31.992L164.78 32.036V32.52L163.9 34.236ZM156.508 35.952L156.288 37.712L154.352 42.86L150.524 52.056L149.468 54.564L148.808 55.928H148.764V55.972L148.676 56.016L148.104 56.456L147.62 56.28L147.268 56.192L147.136 55.84L146.916 55.268V54.652L147.312 52.848L148.28 50.472L153.912 36.92L155.232 33.752L155.364 33.444L156.112 33.048L156.42 33.488L156.508 34.192V35.952ZM163.196 35.292L162.932 35.82L162.8 36.04L162.844 35.688L163.284 34.632L163.548 34.192L163.416 34.72L163.196 35.292ZM173.052 40.66L167.772 53.42L166.012 57.6L165.308 59.272L165.132 59.36L164.692 60.328L163.944 61.032L163.46 60.856L163.108 60.724L163.064 60.372L163.02 59.756L163.284 59.008L163.944 57.248L165.176 54.344L171.336 39.472L172.832 35.908L173.316 35.028L173.536 34.72L173.756 34.852L174.108 35.028L174.152 35.248L174.196 36.172L173.976 37.976L173.184 40.22H173.228L173.052 40.66ZM154.836 52.628L153.252 56.412L152.328 58.7L151.932 59.404L151.58 59.8L151.316 60.064L151.096 59.932L150.744 59.756L150.788 59.228L150.92 58.832L150.524 59.14L150.128 59.096L149.644 59.008L149.424 58.744L149.028 58.26L148.896 57.336L149.336 55.752L150.48 52.936L154.176 43.96L155.452 40.968L156.068 40.088L156.156 40.308L156.42 41.144L156.464 44.62L156.244 46.38L155.232 49.24L155.408 49.196V49.46L155.452 50.076L155.364 50.78L154.836 52.628ZM172.128 51L170.588 54.784L169.576 57.16L168.784 58.964L168.52 59.492L167.772 59.976L167.508 59.712L167.288 60.108L166.936 60.416L166.452 60.46L166.056 60.504L165.924 60.152L165.704 59.756L165.836 59.184L167.112 55.796L171.82 44.444L173.008 41.628L173.668 40.748L174.108 40.924L174.152 41.452V43.344L172.656 47.876L172.876 48.272L172.832 48.976L172.128 51ZM173.844 52.76L171.864 57.204L171.072 58.04L170.808 58.26L170.148 58.128V57.864V57.248L170.368 56.72L170.94 55.312L172.612 51.308L173.316 49.944L173.668 49.68L174.108 50.164L174.064 50.736L173.844 52.76ZM155.716 54.74L154.836 56.896L154.176 58.26L153.78 58.876L153.428 58.964L153.34 58.92L152.988 59.712L152.724 60.064L152.856 59.756L153.208 58.876H153.164L153.208 58.48L153.692 57.028L155.364 52.892L155.936 51.924L156.244 51.836L156.42 52.276L156.332 53.068L155.716 54.74Z" fill="#FFF8E1"/>
<path d="M210.868 61.956V61.076H210.692L210.252 61.164L210.032 60.856L209.768 60.46L209.812 60.108L210.032 59.184L212.232 53.772L219.14 37.184L220.9 32.96L221.824 31.508L222.132 31.156L222.836 30.98L223.1 30.936L223.408 31.244L223.672 31.508V31.86L223.408 32.916H223.76L223.98 32.872L224.112 33.136L224.332 33.708L224.244 34.148L223.848 35.248L217.424 50.736L215.84 54.52L215.576 55.048L215.18 55.4L214.872 55.664L214.564 55.488L214.124 55.268L214.08 55.048L213.948 54.256L214.74 51.88L214.432 52.1L214.168 52.32L213.992 52.804L213.772 55.048L212.056 60.108L211.88 60.284L211.924 60.548L211.968 60.944L211.792 61.428L211.66 61.78L211.44 61.868L210.868 61.956ZM223.716 51.704L221.648 56.808L220.196 60.24L219.712 61.032L219.184 61.296L218.876 61.472L218.436 61.208L218.084 61.032L217.908 60.592L217.644 59.184L218.26 57.38L217.644 57.424H217.292L217.028 57.028L216.764 56.676L216.632 55.532L218.26 50.648L223.408 38.284L225.036 34.368L226.004 32.212L226.664 31.464L227.104 31.288L227.544 31.112L228.028 31.244L228.512 31.42L228.644 31.904L228.776 32.388L228.644 32.828L228.556 33.092L228.6 33.048L229.26 33.18V33.444L229.304 34.104L228.732 35.248L227.5 37.36L225.872 40.088L225.608 40.484H225.564L225.08 41.584L223.32 45.192L222.44 47.92L222.22 48.58L222.396 48.448L222.616 48.36L222.968 48.58L223.364 48.844L223.804 49.724L223.716 51.704ZM212.672 36.26L210.032 43.3L205.368 54.564L204.18 57.38L203.564 58.876L203.124 59.624L202.772 59.712L202.42 59.8L202.288 59.448L202.156 58.26L203.388 53.728L203.256 53.596L202.948 53.332V53.112L202.904 52.408L203.476 48.008L205.236 43.652L208.404 36.084L209.768 32.828L210.384 31.86L210.648 31.464L211.352 31.2L211.572 31.112L212.056 31.376L212.364 31.596L212.408 31.816L212.54 32.476L212.408 32.916L212.1 33.664L212.32 33.708L212.672 33.796L212.76 34.28L212.672 36.26ZM209.064 33.488L207.304 37.844L204.576 44.444L203.476 47.04L202.684 47.612L202.376 46.864L202.332 43.696L203.608 38.988L202.948 39.516L203.036 39.164L203.388 37.888L204.752 34.632L205.192 33.664L205.368 33.356L205.94 33.312L205.984 33.224L206.776 32.08L207.612 31.596H208.184H208.536L208.888 31.948L209.152 32.212L209.196 32.564L209.064 33.488ZM214.608 38.68L216.544 35.204L217.116 34.456L217.864 32.872L218.48 32.168L218.92 31.992L219.36 31.816L219.8 32.036L220.108 32.168L220.152 32.564L220.24 33.048L220.064 33.708L216.808 41.672L210.912 55.84L209.768 58.656L208.624 60.856L208.36 61.252L207.832 61.56L207.48 61.736L207.04 61.604L206.688 61.472L206.556 61.164L206.424 60.68L206.468 60.328L206.732 59.448L206.82 59.228L206.072 60.812L205.324 61.296L205.016 61.472L204.532 61.384L204.048 61.296L203.828 60.944L203.564 60.504L203.608 60.02L204.004 58.568L206.996 51.308L211.176 41.232L211.88 39.516L212.276 38.636L212.804 38.064L213.068 38.328L213.464 39.076L213.552 39.428L213.948 39.34L214.256 39.164L214.608 38.68ZM204.312 34.896L203.08 37.712L202.772 38.152L202.42 38.196H202.2L202.156 37.976L202.024 37.008L202.64 33.488L203.168 32.652L203.564 32.432L204.004 32.168L204.444 32.388L204.796 32.52V33.004L204.84 33.444L204.312 34.896ZM226.356 58.348L225.388 60.592L224.948 61.296L224.728 61.56L224.156 61.78L223.716 61.692L223.32 61.252L223.364 60.812L222.748 61.296L222.176 61.384L221.824 61.428L221.56 61.164L221.076 60.812V60.548L221.032 59.844L221.208 59.272L221.868 57.512L223.496 53.552L224.332 51.748L224.64 51.22L225.344 50.956L225.564 50.824L225.916 51.176L226.268 51.484L226.576 52.364L226.356 53.992L225.916 55.136L226.312 55.004L226.664 55.136L227.016 55.752L226.972 56.368L226.356 58.348ZM227.94 61.208V60.68L227.676 60.9L227.28 61.252L226.884 61.208L226.356 61.12L226.136 60.24L226.356 59.272L227.28 57.248L227.588 56.72L228.116 56.456L228.556 56.5L228.996 56.896L229.04 57.38L228.776 59.008L228.468 59.668H228.732L229.128 59.712L229.084 60.108V60.724L228.732 61.208L228.512 61.472L227.94 61.208ZM230.316 60.284L230.624 60.46L230.272 60.856L230.008 60.636L230.316 60.284Z" fill="#FFF8E1"/>
<path d="M273.688 35.644L266.032 53.992L264.228 58.348L263.7 59.272L263.48 59.536L263.348 59.228L263.216 58.876L263.26 58.656L262.996 58.788L262.644 58.92L262.292 58.612L261.94 58.304V57.952V57.116L263.876 52.1L270.036 37.316L271.664 33.4L272.544 31.904L272.852 31.552L273.556 31.288L273.996 31.376L274.436 31.86L274.392 32.476L274.172 33.18L274.26 33.136L274.48 33.576L274.26 34.104L273.688 35.644ZM270.52 34.588L264.052 50.296L261.456 56.456L260.928 57.468L260.664 57.776L260.18 57.82L260.268 57.468L260.444 56.808L260.4 56.896L259.916 56.984L259.564 57.072L259.3 56.808L258.904 56.5L258.86 56.148L258.772 55.268L260.444 50.604L265.196 39.164L266.736 35.38L267.836 33.048L268.76 32.036L269.156 31.728L269.64 31.684L270.124 31.64L270.344 31.904L270.608 32.3L270.564 32.696L270.388 33.488L270.74 33.4L270.696 33.664L270.52 34.588ZM273.336 45.104L272.456 46.996L272.06 47.568L271.444 47.964L271.4 47.7L271.312 47.128L272.236 44.576L273.248 42.596L273.512 42.42L273.556 42.376L275.712 37.096L275.536 36.92L275.624 36.7L275.756 36.216L276.548 34.28L277.076 33.532L277.296 33.4L277.56 32.872L278 32.432L277.956 32.916L277.736 33.532V33.796L277.78 34.148L277.604 34.588L276.988 35.864L276.372 36.744L275.316 39.12L274.216 41.98L273.996 42.552L274.172 42.684L273.996 43.3L273.336 45.104ZM266.208 57.556L264.844 60.548L264.668 60.856L264.184 60.988L263.964 60.944L264.008 60.592L264.36 59.36L264.668 58.656L264.888 57.864L266.824 53.2L273.468 37.228L275.052 33.444L275.58 32.608L275.888 32.52L276.02 33.048L275.8 33.62L275.844 34.016L275.668 34.676L275.052 36.216L271.136 45.632L270.124 47.656L269.772 47.92L268.848 49.856L267.528 53.684L267 54.916L267.088 55.136L267 55.488L266.736 56.236L266.208 57.556ZM266.12 35.028L266.648 34.676L266.56 35.028L266.252 35.952L264.624 39.956L260.268 50.428L259.388 52.584L258.728 53.948L258.288 54.52L257.936 54.608L257.584 54.652L257.452 54.3L257.232 53.816L257.32 53.288L257.936 51.484L257.188 51.396L257.144 50.912L257.628 48.536L260.356 42.596L261.808 40.704L262.292 40.44L262.512 40.352L263.084 39.032L264.844 36.524L266.12 35.028ZM279.012 44.664L273.116 58.832L272.06 61.164L271.532 61.824L270.828 62.22L270.344 62L269.992 61.824L269.948 61.428L269.992 60.46L270.036 60.328L269.772 60.416L269.376 60.328L268.936 59.932L268.892 59.404L269.464 57.248L270.784 54.256L271.444 53.42L271.664 53.2L272.368 52.98L272.764 53.112L273.072 53.42L273.732 52.276L274.48 49.592L275.272 47.612L275.008 47.436L274.568 47.172L274.436 46.688L275.096 43.652L276.548 40.572L277.296 39.956L277.824 39.912L278.396 40.264L278.484 40.836L278.132 41.936L278.528 41.98L278.924 42.024L279.144 42.376L279.408 42.772L279.364 43.256L279.012 44.664ZM281.08 48.404L276.592 59.184L275.888 60.68L275.316 61.296L274.612 61.516L274.128 61.076L274.172 60.856L274.216 60.504L273.556 60.856L273.072 60.416L273.116 60.152L273.248 59.536L273.556 58.656L274.392 56.72L278.66 46.424L279.98 43.564L280.332 43.08H280.816H281.08L281.124 43.344L281.168 43.828L280.992 44.62V44.664L281.432 44.532L281.784 44.664L282.092 45.192L282.048 45.544L281.08 48.404ZM283.676 51.044L280.772 58.084L280.244 59.096L279.98 59.536L279.628 59.624L279.144 59.668L279.188 59.096V59.052L278.66 59.932L278.264 60.328L278 60.284L277.428 60.196V59.976L277.472 59.492L278.264 57.292L281.828 48.712L282.708 46.776L283.104 46.204L283.72 45.852L283.984 46.292L284.248 46.6L284.16 47.084L283.72 48.492L284.292 48.404L284.336 49.02L283.676 51.044ZM282.004 48.096L278.88 55.664L277.692 58.48L277.472 59.008L277.34 59.228H277.12L277.208 59.008L277.384 58.48L278.308 56.192L281.652 48.096L282.18 46.82L282.444 46.292L282.884 45.896L282.708 46.336L282.004 48.096ZM257.408 47.656L257.672 46.996L258.2 46.336L258.112 46.688L257.584 48.008L257.232 48.404L257.408 47.656ZM281.3 48.668L278.176 56.236L277.12 58.744L276.548 59.8L276.768 59.228L277.648 57.072L280.376 50.472L281.256 48.316L281.784 47.26L281.696 47.612L281.3 48.668ZM284.204 55.092L283.104 57.16L282.884 57.468L282.224 57.204L282.312 56.984L282.4 56.632L282.18 57.204L281.828 57.952L281.3 58.612L281.036 58.26L281.124 57.82L281.608 56.368L283.5 51.836L284.336 50.12L284.644 49.68L284.732 49.9L284.952 50.252L284.82 50.692L283.676 53.596V53.552L284.072 53.332L284.16 53.112L284.776 51.968L284.644 52.276L284.292 53.112H284.38L284.644 53.288L284.6 53.508L284.512 54.212L284.204 55.092ZM268.1 57.732L267.176 59.888L266.56 60.988L265.856 61.34L265.636 60.856L265.768 60.372L266.12 59.404L267.44 56.28L267.792 55.664L268.1 55.532L268.188 55.268L268.804 54.212L268.848 54.564L268.584 55.488V55.796L268.628 56.28L268.1 57.732Z" fill="#FFF8E1"/>
</svg>
